<mxfile host="app.diagrams.net" modified="2020-09-14T09:03:19.567Z" agent="5.0 (Macintosh; Intel Mac OS X 10_15_6) AppleWebKit/537.36 (KHTML, like Gecko) Chrome/80.0.3987.149 Safari/537.36" etag="lSfhT2f1LAqDAZDS70Nf" version="13.6.9" type="github">
  <diagram id="6a731a19-8d31-9384-78a2-239565b7b9f0" name="Page-1">
    <mxGraphModel dx="1718" dy="974" grid="1" gridSize="10" guides="1" tooltips="1" connect="1" arrows="1" fold="1" page="1" pageScale="1" pageWidth="1654" pageHeight="1169" background="#ffffff" math="0" shadow="0">
      <root>
        <mxCell id="0" />
        <mxCell id="1" parent="0" />
        <mxCell id="1745" value="" style="edgeStyle=none;rounded=0;jumpStyle=none;html=1;shadow=0;labelBackgroundColor=none;startArrow=none;startFill=0;endArrow=classic;endFill=1;jettySize=auto;orthogonalLoop=1;strokeColor=#2F5B7C;strokeWidth=3;fontFamily=Helvetica;fontSize=16;fontColor=#23445D;spacing=5;" parent="1" source="1749" target="1764" edge="1">
          <mxGeometry relative="1" as="geometry" />
        </mxCell>
        <mxCell id="1746" value="" style="edgeStyle=none;rounded=0;jumpStyle=none;html=1;shadow=0;labelBackgroundColor=none;startArrow=none;startFill=0;endArrow=classic;endFill=1;jettySize=auto;orthogonalLoop=1;strokeColor=#2F5B7C;strokeWidth=3;fontFamily=Helvetica;fontSize=16;fontColor=#23445D;spacing=5;" parent="1" source="1749" target="1771" edge="1">
          <mxGeometry relative="1" as="geometry" />
        </mxCell>
        <mxCell id="1747" value="" style="edgeStyle=none;rounded=0;jumpStyle=none;html=1;shadow=0;labelBackgroundColor=none;startArrow=none;startFill=0;endArrow=classic;endFill=1;jettySize=auto;orthogonalLoop=1;strokeColor=#2F5B7C;strokeWidth=3;fontFamily=Helvetica;fontSize=16;fontColor=#23445D;spacing=5;" parent="1" source="1749" target="1760" edge="1">
          <mxGeometry relative="1" as="geometry" />
        </mxCell>
        <mxCell id="1748" value="" style="edgeStyle=none;rounded=0;jumpStyle=none;html=1;shadow=0;labelBackgroundColor=none;startArrow=none;startFill=0;endArrow=classic;endFill=1;jettySize=auto;orthogonalLoop=1;strokeColor=#2F5B7C;strokeWidth=3;fontFamily=Helvetica;fontSize=16;fontColor=#23445D;spacing=5;" parent="1" source="1749" target="1753" edge="1">
          <mxGeometry relative="1" as="geometry" />
        </mxCell>
        <mxCell id="1749" value="Why do people game?" style="rounded=1;whiteSpace=wrap;html=1;shadow=0;labelBackgroundColor=none;strokeColor=none;strokeWidth=3;fillColor=#2F5B7C;fontFamily=Helvetica;fontSize=16;fontColor=#FFFFFF;align=center;fontStyle=1;spacing=5;arcSize=7;perimeterSpacing=2;" parent="1" vertex="1">
          <mxGeometry x="744.49" y="534.5" width="150" height="70" as="geometry" />
        </mxCell>
        <mxCell id="1750" value="" style="edgeStyle=none;rounded=1;jumpStyle=none;html=1;shadow=0;labelBackgroundColor=none;startArrow=none;startFill=0;jettySize=auto;orthogonalLoop=1;strokeColor=#E85642;strokeWidth=3;fontFamily=Helvetica;fontSize=14;fontColor=#FFFFFF;spacing=5;fontStyle=1;fillColor=#b0e3e6;" parent="1" source="1753" edge="1">
          <mxGeometry relative="1" as="geometry">
            <mxPoint x="426.1312213740457" y="470.5" as="targetPoint" />
          </mxGeometry>
        </mxCell>
        <mxCell id="1751" value="" style="edgeStyle=none;rounded=1;jumpStyle=none;html=1;shadow=0;labelBackgroundColor=none;startArrow=none;startFill=0;jettySize=auto;orthogonalLoop=1;strokeColor=#E85642;strokeWidth=3;fontFamily=Helvetica;fontSize=14;fontColor=#FFFFFF;spacing=5;fontStyle=1;fillColor=#b0e3e6;" parent="1" source="1753" edge="1">
          <mxGeometry relative="1" as="geometry">
            <mxPoint x="415.49" y="569.5" as="targetPoint" />
          </mxGeometry>
        </mxCell>
        <mxCell id="1752" value="" style="edgeStyle=none;rounded=1;jumpStyle=none;html=1;shadow=0;labelBackgroundColor=none;startArrow=none;startFill=0;jettySize=auto;orthogonalLoop=1;strokeColor=#E85642;strokeWidth=3;fontFamily=Helvetica;fontSize=14;fontColor=#FFFFFF;spacing=5;fontStyle=1;fillColor=#b0e3e6;" parent="1" source="1753" edge="1">
          <mxGeometry relative="1" as="geometry">
            <mxPoint x="429.8261344537816" y="656.5" as="targetPoint" />
          </mxGeometry>
        </mxCell>
        <mxCell id="1753" value="Healthy distraction" style="rounded=1;whiteSpace=wrap;html=1;shadow=0;labelBackgroundColor=none;strokeColor=none;strokeWidth=3;fillColor=#e85642;fontFamily=Helvetica;fontSize=14;fontColor=#FFFFFF;align=center;spacing=5;fontStyle=1;arcSize=7;perimeterSpacing=2;" parent="1" vertex="1">
          <mxGeometry x="464.49" y="539.5" width="150" height="60" as="geometry" />
        </mxCell>
        <mxCell id="1757" value="" style="edgeStyle=none;rounded=0;jumpStyle=none;html=1;shadow=0;labelBackgroundColor=none;startArrow=none;startFill=0;endArrow=classic;endFill=1;jettySize=auto;orthogonalLoop=1;strokeColor=#1699D3;strokeWidth=3;fontFamily=Helvetica;fontSize=14;fontColor=#FFFFFF;spacing=5;" parent="1" source="1760" edge="1">
          <mxGeometry relative="1" as="geometry">
            <mxPoint x="709.49" y="864" as="targetPoint" />
          </mxGeometry>
        </mxCell>
        <mxCell id="1758" value="" style="edgeStyle=none;rounded=0;jumpStyle=none;html=1;shadow=0;labelBackgroundColor=none;startArrow=none;startFill=0;endArrow=classic;endFill=1;jettySize=auto;orthogonalLoop=1;strokeColor=#1699D3;strokeWidth=3;fontFamily=Helvetica;fontSize=14;fontColor=#FFFFFF;spacing=5;" parent="1" source="1760" edge="1">
          <mxGeometry relative="1" as="geometry">
            <mxPoint x="819.49" y="868.5" as="targetPoint" />
          </mxGeometry>
        </mxCell>
        <mxCell id="1759" value="" style="edgeStyle=none;rounded=0;jumpStyle=none;html=1;shadow=0;labelBackgroundColor=none;startArrow=none;startFill=0;endArrow=classic;endFill=1;jettySize=auto;orthogonalLoop=1;strokeColor=#1699D3;strokeWidth=3;fontFamily=Helvetica;fontSize=14;fontColor=#FFFFFF;spacing=5;" parent="1" source="1760" edge="1">
          <mxGeometry relative="1" as="geometry">
            <mxPoint x="929.49" y="864" as="targetPoint" />
          </mxGeometry>
        </mxCell>
        <mxCell id="1760" value="Escapism" style="rounded=1;whiteSpace=wrap;html=1;shadow=0;labelBackgroundColor=none;strokeColor=none;strokeWidth=3;fillColor=#1699d3;fontFamily=Helvetica;fontSize=14;fontColor=#FFFFFF;align=center;spacing=5;fontStyle=1;arcSize=7;perimeterSpacing=2;" parent="1" vertex="1">
          <mxGeometry x="744.49" y="724.5" width="150" height="60" as="geometry" />
        </mxCell>
        <mxCell id="1764" value="Boredom" style="rounded=1;whiteSpace=wrap;html=1;shadow=0;labelBackgroundColor=none;strokeColor=none;strokeWidth=3;fillColor=#F08705;fontFamily=Helvetica;fontSize=14;fontColor=#FFFFFF;align=center;spacing=5;fontStyle=1;arcSize=7;perimeterSpacing=2;" parent="1" vertex="1">
          <mxGeometry x="744.49" y="354.5" width="150" height="60" as="geometry" />
        </mxCell>
        <mxCell id="1766" value="" style="edgeStyle=none;rounded=0;jumpStyle=none;html=1;shadow=0;labelBackgroundColor=none;startArrow=none;startFill=0;endArrow=classic;endFill=1;jettySize=auto;orthogonalLoop=1;strokeColor=#F08705;strokeWidth=3;fontFamily=Helvetica;fontSize=14;fontColor=#FFFFFF;spacing=5;" parent="1" source="1764" edge="1">
          <mxGeometry relative="1" as="geometry">
            <mxPoint x="919.49" y="284" as="targetPoint" />
          </mxGeometry>
        </mxCell>
        <mxCell id="1768" value="" style="edgeStyle=none;rounded=0;jumpStyle=none;html=1;shadow=0;labelBackgroundColor=none;startArrow=none;startFill=0;endArrow=classic;endFill=1;jettySize=auto;orthogonalLoop=1;strokeColor=#F08705;strokeWidth=3;fontFamily=Helvetica;fontSize=14;fontColor=#FFFFFF;spacing=5;" parent="1" source="1764" edge="1">
          <mxGeometry relative="1" as="geometry">
            <mxPoint x="819.49" y="266.5" as="targetPoint" />
          </mxGeometry>
        </mxCell>
        <mxCell id="1770" value="" style="edgeStyle=none;rounded=0;jumpStyle=none;html=1;shadow=0;labelBackgroundColor=none;startArrow=none;startFill=0;endArrow=classic;endFill=1;jettySize=auto;orthogonalLoop=1;strokeColor=#F08705;strokeWidth=3;fontFamily=Helvetica;fontSize=14;fontColor=#FFFFFF;spacing=5;" parent="1" source="1764" edge="1">
          <mxGeometry relative="1" as="geometry">
            <mxPoint x="729.49" y="274" as="targetPoint" />
          </mxGeometry>
        </mxCell>
        <mxCell id="1771" value="Connection" style="rounded=1;whiteSpace=wrap;html=1;shadow=0;labelBackgroundColor=none;strokeColor=none;strokeWidth=3;fillColor=#12aab5;fontFamily=Helvetica;fontSize=14;fontColor=#FFFFFF;align=center;spacing=5;fontStyle=1;arcSize=7;perimeterSpacing=2;" parent="1" vertex="1">
          <mxGeometry x="1044.49" y="539.4999999999999" width="150" height="60" as="geometry" />
        </mxCell>
        <mxCell id="1773" value="" style="edgeStyle=none;rounded=1;jumpStyle=none;html=1;shadow=0;labelBackgroundColor=none;startArrow=none;startFill=0;jettySize=auto;orthogonalLoop=1;strokeColor=#12AAB5;strokeWidth=3;fontFamily=Helvetica;fontSize=14;fontColor=#FFFFFF;spacing=5;fontStyle=1;fillColor=#b0e3e6;" parent="1" source="1771" edge="1">
          <mxGeometry relative="1" as="geometry">
            <mxPoint x="1181.0727338129498" y="676.5" as="targetPoint" />
          </mxGeometry>
        </mxCell>
        <mxCell id="1775" value="" style="edgeStyle=none;rounded=1;jumpStyle=none;html=1;shadow=0;labelBackgroundColor=none;startArrow=none;startFill=0;jettySize=auto;orthogonalLoop=1;strokeColor=#12AAB5;strokeWidth=3;fontFamily=Helvetica;fontSize=14;fontColor=#FFFFFF;spacing=5;fontStyle=1;fillColor=#b0e3e6;" parent="1" source="1771" edge="1">
          <mxGeometry relative="1" as="geometry">
            <mxPoint x="1252.49" y="600.5333333333333" as="targetPoint" />
          </mxGeometry>
        </mxCell>
        <mxCell id="1777" value="" style="edgeStyle=none;rounded=1;jumpStyle=none;html=1;shadow=0;labelBackgroundColor=none;startArrow=none;startFill=0;jettySize=auto;orthogonalLoop=1;strokeColor=#12AAB5;strokeWidth=3;fontFamily=Helvetica;fontSize=14;fontColor=#FFFFFF;spacing=5;fontStyle=1;fillColor=#b0e3e6;" parent="1" source="1771" edge="1">
          <mxGeometry relative="1" as="geometry">
            <mxPoint x="1252.49" y="530.8666666666666" as="targetPoint" />
          </mxGeometry>
        </mxCell>
        <mxCell id="1779" value="" style="edgeStyle=none;rounded=1;jumpStyle=none;html=1;shadow=0;labelBackgroundColor=none;startArrow=none;startFill=0;jettySize=auto;orthogonalLoop=1;strokeColor=#12AAB5;strokeWidth=3;fontFamily=Helvetica;fontSize=14;fontColor=#FFFFFF;spacing=5;fontStyle=1;fillColor=#b0e3e6;" parent="1" source="1771" edge="1">
          <mxGeometry relative="1" as="geometry">
            <mxPoint x="1181.3339716312057" y="460.5" as="targetPoint" />
          </mxGeometry>
        </mxCell>
        <mxCell id="P4UCCWuxnrB1TjXejm1u-1779" value="" style="edgeStyle=none;rounded=0;jumpStyle=none;html=1;shadow=0;labelBackgroundColor=none;startArrow=none;startFill=0;endArrow=classic;endFill=1;jettySize=auto;orthogonalLoop=1;strokeColor=#2F5B7C;strokeWidth=3;fontFamily=Helvetica;fontSize=16;fontColor=#23445D;spacing=5;" edge="1" parent="1">
          <mxGeometry relative="1" as="geometry">
            <mxPoint x="839.49" y="534" as="sourcePoint" />
            <mxPoint x="1019.49" y="404" as="targetPoint" />
          </mxGeometry>
        </mxCell>
        <mxCell id="P4UCCWuxnrB1TjXejm1u-1780" value="" style="edgeStyle=none;rounded=0;jumpStyle=none;html=1;shadow=0;labelBackgroundColor=none;startArrow=none;startFill=0;endArrow=classic;endFill=1;jettySize=auto;orthogonalLoop=1;strokeColor=#2F5B7C;strokeWidth=3;fontFamily=Helvetica;fontSize=16;fontColor=#23445D;spacing=5;" edge="1" parent="1">
          <mxGeometry relative="1" as="geometry">
            <mxPoint x="799.49" y="534" as="sourcePoint" />
            <mxPoint x="619.49" y="404" as="targetPoint" />
          </mxGeometry>
        </mxCell>
        <mxCell id="P4UCCWuxnrB1TjXejm1u-1783" value="&lt;font color=&quot;#ffffff&quot;&gt;Entertainment/Fun&lt;/font&gt;" style="rounded=1;whiteSpace=wrap;html=1;shadow=0;labelBackgroundColor=none;strokeWidth=3;fontFamily=Helvetica;fontSize=14;align=center;spacing=5;fontStyle=0;arcSize=7;perimeterSpacing=2;fontColor=#ffffff;strokeColor=#D80073;fillColor=#D80073;" vertex="1" parent="1">
          <mxGeometry x="949.49" y="338.5" width="150" height="60" as="geometry" />
        </mxCell>
        <mxCell id="P4UCCWuxnrB1TjXejm1u-1784" value="" style="edgeStyle=none;rounded=0;jumpStyle=none;html=1;shadow=0;labelBackgroundColor=none;startArrow=none;startFill=0;endArrow=classic;endFill=1;jettySize=auto;orthogonalLoop=1;strokeColor=#2F5B7C;strokeWidth=3;fontFamily=Helvetica;fontSize=16;fontColor=#23445D;spacing=5;" edge="1" parent="1">
          <mxGeometry relative="1" as="geometry">
            <mxPoint x="847.49" y="609" as="sourcePoint" />
            <mxPoint x="1059.49" y="714" as="targetPoint" />
          </mxGeometry>
        </mxCell>
        <mxCell id="P4UCCWuxnrB1TjXejm1u-1785" value="" style="edgeStyle=none;rounded=0;jumpStyle=none;html=1;shadow=0;labelBackgroundColor=none;startArrow=none;startFill=0;endArrow=classic;endFill=1;jettySize=auto;orthogonalLoop=1;strokeColor=#2F5B7C;strokeWidth=3;fontFamily=Helvetica;fontSize=16;fontColor=#23445D;spacing=5;exitX=0.325;exitY=1.02;exitDx=0;exitDy=0;exitPerimeter=0;" edge="1" parent="1" source="1749">
          <mxGeometry relative="1" as="geometry">
            <mxPoint x="819.49" y="594" as="sourcePoint" />
            <mxPoint x="609.49" y="714" as="targetPoint" />
          </mxGeometry>
        </mxCell>
        <mxCell id="P4UCCWuxnrB1TjXejm1u-1786" value="&lt;font color=&quot;#ffffff&quot;&gt;Stress relief&lt;/font&gt;" style="rounded=1;whiteSpace=wrap;html=1;shadow=0;labelBackgroundColor=none;strokeWidth=3;fontFamily=Helvetica;fontSize=14;align=center;spacing=5;fontStyle=1;arcSize=7;perimeterSpacing=2;strokeColor=#82b366;fillColor=#82B366;" vertex="1" parent="1">
          <mxGeometry x="509.49" y="714" width="150" height="60" as="geometry" />
        </mxCell>
        <mxCell id="P4UCCWuxnrB1TjXejm1u-1787" value="Learn life skills" style="rounded=1;whiteSpace=wrap;html=1;shadow=0;labelBackgroundColor=none;strokeWidth=3;fontFamily=Helvetica;fontSize=14;fontColor=#ffffff;align=center;spacing=5;fontStyle=1;arcSize=7;perimeterSpacing=2;strokeColor=#E3C800;fillColor=#E3C800;" vertex="1" parent="1">
          <mxGeometry x="1019.49" y="714" width="150" height="60" as="geometry" />
        </mxCell>
        <mxCell id="P4UCCWuxnrB1TjXejm1u-1788" value="&lt;font color=&quot;#ffffff&quot;&gt;Challenge&lt;/font&gt;" style="rounded=1;whiteSpace=wrap;html=1;shadow=0;labelBackgroundColor=none;strokeWidth=3;fontFamily=Helvetica;fontSize=14;align=center;spacing=5;fontStyle=0;arcSize=7;perimeterSpacing=2;strokeColor=#E6B1FF;fillColor=#E6B1FF;" vertex="1" parent="1">
          <mxGeometry x="529.49" y="338.5" width="150" height="60" as="geometry" />
        </mxCell>
        <mxCell id="P4UCCWuxnrB1TjXejm1u-1791" value="" style="edgeStyle=none;rounded=0;jumpStyle=none;html=1;shadow=0;labelBackgroundColor=none;startArrow=none;startFill=0;endArrow=classic;endFill=1;jettySize=auto;orthogonalLoop=1;strokeWidth=3;fontFamily=Helvetica;fontSize=14;fontColor=#FFFFFF;spacing=5;strokeColor=#E6B1FF;" edge="1" parent="1">
          <mxGeometry relative="1" as="geometry">
            <mxPoint x="529.4850498338869" y="368.5" as="sourcePoint" />
            <mxPoint x="395" y="314" as="targetPoint" />
          </mxGeometry>
        </mxCell>
        <mxCell id="P4UCCWuxnrB1TjXejm1u-1793" value="" style="edgeStyle=none;rounded=0;jumpStyle=none;html=1;shadow=0;labelBackgroundColor=none;startArrow=none;startFill=0;endArrow=classic;endFill=1;jettySize=auto;orthogonalLoop=1;strokeWidth=3;fontFamily=Helvetica;fontSize=14;fontColor=#FFFFFF;spacing=5;strokeColor=#E6B1FF;" edge="1" parent="1">
          <mxGeometry relative="1" as="geometry">
            <mxPoint x="558.9750498338869" y="338.5" as="sourcePoint" />
            <mxPoint x="509.49" y="294" as="targetPoint" />
          </mxGeometry>
        </mxCell>
        <mxCell id="P4UCCWuxnrB1TjXejm1u-1794" value="" style="edgeStyle=none;rounded=0;jumpStyle=none;html=1;shadow=0;labelBackgroundColor=none;startArrow=none;startFill=0;endArrow=classic;endFill=1;jettySize=auto;orthogonalLoop=1;strokeWidth=3;fontFamily=Helvetica;fontSize=14;fontColor=#FFFFFF;spacing=5;strokeColor=#E6B1FF;" edge="1" parent="1">
          <mxGeometry relative="1" as="geometry">
            <mxPoint x="628.9750498338869" y="338.5" as="sourcePoint" />
            <mxPoint x="628.49" y="274" as="targetPoint" />
          </mxGeometry>
        </mxCell>
        <mxCell id="P4UCCWuxnrB1TjXejm1u-1795" value="" style="edgeStyle=none;rounded=0;jumpStyle=none;html=1;shadow=0;labelBackgroundColor=none;startArrow=none;startFill=0;endArrow=classic;endFill=1;jettySize=auto;orthogonalLoop=1;strokeWidth=3;fontFamily=Helvetica;fontSize=14;fontColor=#FFFFFF;spacing=5;strokeColor=#D80073;" edge="1" parent="1">
          <mxGeometry relative="1" as="geometry">
            <mxPoint x="1069.4907960199007" y="342.5" as="sourcePoint" />
            <mxPoint x="1137.65" y="274" as="targetPoint" />
          </mxGeometry>
        </mxCell>
        <mxCell id="P4UCCWuxnrB1TjXejm1u-1796" value="" style="edgeStyle=none;rounded=0;jumpStyle=none;html=1;shadow=0;labelBackgroundColor=none;startArrow=none;startFill=0;endArrow=classic;endFill=1;jettySize=auto;orthogonalLoop=1;strokeWidth=3;fontFamily=Helvetica;fontSize=14;fontColor=#FFFFFF;spacing=5;strokeColor=#D80073;" edge="1" parent="1">
          <mxGeometry relative="1" as="geometry">
            <mxPoint x="1089.4907960199005" y="372.5" as="sourcePoint" />
            <mxPoint x="1199.49" y="344" as="targetPoint" />
          </mxGeometry>
        </mxCell>
        <mxCell id="P4UCCWuxnrB1TjXejm1u-1797" value="" style="edgeStyle=none;rounded=0;jumpStyle=none;html=1;shadow=0;labelBackgroundColor=none;startArrow=none;startFill=0;endArrow=classic;endFill=1;jettySize=auto;orthogonalLoop=1;strokeWidth=3;fontFamily=Helvetica;fontSize=14;fontColor=#FFFFFF;spacing=5;strokeColor=#D80073;" edge="1" parent="1">
          <mxGeometry relative="1" as="geometry">
            <mxPoint x="1010.4107960199004" y="338.5" as="sourcePoint" />
            <mxPoint x="1009.49" y="260" as="targetPoint" />
          </mxGeometry>
        </mxCell>
        <mxCell id="P4UCCWuxnrB1TjXejm1u-1798" value="" style="edgeStyle=none;rounded=0;jumpStyle=none;html=1;shadow=0;labelBackgroundColor=none;startArrow=none;startFill=0;endArrow=classic;endFill=1;jettySize=auto;orthogonalLoop=1;strokeWidth=3;fontFamily=Helvetica;fontSize=14;fontColor=#FFFFFF;spacing=5;strokeColor=#82B366;" edge="1" parent="1">
          <mxGeometry relative="1" as="geometry">
            <mxPoint x="517.3438812785389" y="764" as="sourcePoint" />
            <mxPoint x="439.49" y="841.5" as="targetPoint" />
          </mxGeometry>
        </mxCell>
        <mxCell id="P4UCCWuxnrB1TjXejm1u-1799" value="" style="edgeStyle=none;rounded=0;jumpStyle=none;html=1;shadow=0;labelBackgroundColor=none;startArrow=none;startFill=0;endArrow=classic;endFill=1;jettySize=auto;orthogonalLoop=1;strokeWidth=3;fontFamily=Helvetica;fontSize=14;fontColor=#FFFFFF;spacing=5;strokeColor=#82B366;" edge="1" parent="1">
          <mxGeometry relative="1" as="geometry">
            <mxPoint x="578.4138812785388" y="774" as="sourcePoint" />
            <mxPoint x="569.49" y="852" as="targetPoint" />
          </mxGeometry>
        </mxCell>
        <mxCell id="P4UCCWuxnrB1TjXejm1u-1801" value="" style="edgeStyle=none;rounded=0;jumpStyle=none;html=1;shadow=0;labelBackgroundColor=none;startArrow=none;startFill=0;endArrow=classic;endFill=1;jettySize=auto;orthogonalLoop=1;strokeWidth=3;fontFamily=Helvetica;fontSize=14;fontColor=#FFFFFF;spacing=5;strokeColor=#82B366;exitX=0;exitY=0.25;exitDx=0;exitDy=0;" edge="1" parent="1" source="P4UCCWuxnrB1TjXejm1u-1786">
          <mxGeometry relative="1" as="geometry">
            <mxPoint x="464.4938812785388" y="714" as="sourcePoint" />
            <mxPoint x="409.49" y="744" as="targetPoint" />
          </mxGeometry>
        </mxCell>
        <mxCell id="P4UCCWuxnrB1TjXejm1u-1802" value="" style="edgeStyle=none;rounded=0;jumpStyle=none;html=1;shadow=0;labelBackgroundColor=none;startArrow=none;startFill=0;endArrow=classic;endFill=1;jettySize=auto;orthogonalLoop=1;strokeWidth=3;fontFamily=Helvetica;fontSize=14;fontColor=#FFFFFF;spacing=5;strokeColor=#E3C800;" edge="1" parent="1">
          <mxGeometry relative="1" as="geometry">
            <mxPoint x="1059.6361187214611" y="774" as="sourcePoint" />
            <mxPoint x="1059.49" y="844" as="targetPoint" />
          </mxGeometry>
        </mxCell>
        <mxCell id="P4UCCWuxnrB1TjXejm1u-1803" value="" style="edgeStyle=none;rounded=0;jumpStyle=none;html=1;shadow=0;labelBackgroundColor=none;startArrow=none;startFill=0;endArrow=classic;endFill=1;jettySize=auto;orthogonalLoop=1;strokeWidth=3;fontFamily=Helvetica;fontSize=14;fontColor=#FFFFFF;spacing=5;strokeColor=#E3C800;" edge="1" parent="1">
          <mxGeometry relative="1" as="geometry">
            <mxPoint x="1119.1361187214611" y="774" as="sourcePoint" />
            <mxPoint x="1179.49" y="854" as="targetPoint" />
          </mxGeometry>
        </mxCell>
        <mxCell id="P4UCCWuxnrB1TjXejm1u-1804" value="" style="edgeStyle=none;rounded=0;jumpStyle=none;html=1;shadow=0;labelBackgroundColor=none;startArrow=none;startFill=0;endArrow=classic;endFill=1;jettySize=auto;orthogonalLoop=1;strokeWidth=3;fontFamily=Helvetica;fontSize=14;fontColor=#FFFFFF;spacing=5;strokeColor=#E3C800;" edge="1" parent="1">
          <mxGeometry relative="1" as="geometry">
            <mxPoint x="1169.486118721461" y="744" as="sourcePoint" />
            <mxPoint x="1259.49" y="754" as="targetPoint" />
          </mxGeometry>
        </mxCell>
      </root>
    </mxGraphModel>
  </diagram>
</mxfile>
